# xmcd CD database file
#
# Track frame offsets:
#	150
#	54487
#	92787
#	129337
#	159062
#	208712
#	252875
#	283550
#
# Disc length: 3913 seconds
#
# Revision: 0
# Processed by: cddbd v1.4PL0 Copyright (c) Steve Scherf et al.
# Submitted via: CDex 1.51
#
DISCID=640f4708
DTITLE=George Robert/Tom Harrell Quintet - Live in Switzerland 1987-89
DYEAR=1990
DGENRE=Jazz
TTITLE0=Ya Know
TTITLE1=Serenade in Blue
TTITLE2=Solad
TTITLE3=The Long Trail
TTITLE4=Quest for Peace
TTITLE5=One for Thad
TTITLE6=Opaling
TTITLE7=Vikings' Theme
EXTD=YEAR: 1990
EXTT0=
EXTT1=
EXTT2=
EXTT3=
EXTT4=
EXTT5=
EXTT6=
EXTT7=
PLAYORDER=
